<svg xmlns="http://www.w3.org/2000/svg">
<symbol viewBox="0 0 16 16" id="icon-view">
<g id="a/icon_view">
<rect id="Mask Copy 6" opacity="0.01" width="16" height="16" fill="#ECF1F8"/>
<path id="Path" fill-rule="evenodd" clip-rule="evenodd" d="M15 8C14.9929 8.70812 14.6514 9.37509 14.0711 9.81411L7.96 14.4957C7.22814 15.0496 6.23091 15.1563 5.38942 14.7708C4.54794 14.3853 4.00892 13.5748 4 12.6816V3.31842C4.00892 2.4252 4.54794 1.61471 5.38942 1.22921C6.23091 0.843723 7.22814 0.950443 7.96 1.50431L14.0711 6.18589C14.6514 6.62491 14.9929 7.29188 15 8Z" fill="#3E4056"/>
<mask id="mask0" mask-type="alpha" maskUnits="userSpaceOnUse" x="4" y="1" width="11" height="14">
<path id="Path_2" fill-rule="evenodd" clip-rule="evenodd" d="M15 8C14.9929 8.70812 14.6514 9.37509 14.0711 9.81411L7.96 14.4957C7.22814 15.0496 6.23091 15.1563 5.38942 14.7708C4.54794 14.3853 4.00892 13.5748 4 12.6816V3.31842C4.00892 2.4252 4.54794 1.61471 5.38942 1.22921C6.23091 0.843723 7.22814 0.950443 7.96 1.50431L14.0711 6.18589C14.6514 6.62491 14.9929 7.29188 15 8Z" fill="white"/>
</mask>
</g>
</symbol>
<symbol iewBox="0 0 16 14" id="icon-likes">
  <path fill-rule="evenodd" clip-rule="evenodd" d="M8 8.09328C7.17963 9.25452 5.90782 10 4.48 10C2.00576 10 0 7.76142 0 5C0 2.23858 2.00576 0 4.48 0C5.90782 0 7.17963 0.74548 8 1.90672C8.82038 0.74548 10.0922 0 11.52 0C13.9942 0 16 2.23858 16 5C16 7.76142 13.9942 10 11.52 10C10.0922 10 8.82038 9.25452 8 8.09328Z" fill="#FB5F8A"/>
  <mask id="mask0" mask-type="alpha" maskUnits="userSpaceOnUse" x="0" y="0" width="16" height="10">
  <path fill-rule="evenodd" clip-rule="evenodd" d="M8 8.09328C7.17963 9.25452 5.90782 10 4.48 10C2.00576 10 0 7.76142 0 5C0 2.23858 2.00576 0 4.48 0C5.90782 0 7.17963 0.74548 8 1.90672C8.82038 0.74548 10.0922 0 11.52 0C13.9942 0 16 2.23858 16 5C16 7.76142 13.9942 10 11.52 10C10.0922 10 8.82038 9.25452 8 8.09328Z" fill="white"/>
  </mask>
  <path fill-rule="evenodd" clip-rule="evenodd" d="M8 14C10.7614 14 16 9 16 5C16 5 0 5 0 5C0 9 5.23858 14 8 14Z" fill="#FB5F8A"/>
  <mask id="mask1" mask-type="alpha" maskUnits="userSpaceOnUse" x="0" y="5" width="16" height="9">
  <path fill-rule="evenodd" clip-rule="evenodd" d="M8 14C10.7614 14 16 9 16 5C16 5 0 5 0 5C0 9 5.23858 14 8 14Z" fill="white"/>
  </mask>
</symbol>
</svg>
