<svg xmlns="http://www.w3.org/2000/svg"><symbol viewBox="0 0 16 16" id="icon-view"><g id="a/icon_view"><path id="Mask Copy 6" opacity=".01" fill="#ECF1F8" d="M0 0h16v16H0z"/><path id="Path" fill-rule="evenodd" clip-rule="evenodd" d="M15 8a2.306 2.306 0 01-.929 1.814L7.96 14.496c-.732.554-1.73.66-2.57.275-.842-.386-1.381-1.196-1.39-2.09V3.319c.009-.893.548-1.703 1.39-2.089a2.533 2.533 0 012.57.275l6.111 4.682c.58.439.922 1.106.929 1.814z" fill="#3E4056"/><mask id="mask0" maskUnits="userSpaceOnUse" x="4" y="1" width="11" height="14"><path id="Path_2" fill-rule="evenodd" clip-rule="evenodd" d="M15 8a2.306 2.306 0 01-.929 1.814L7.96 14.496c-.732.554-1.73.66-2.57.275-.842-.386-1.381-1.196-1.39-2.09V3.319c.009-.893.548-1.703 1.39-2.089a2.533 2.533 0 012.57.275l6.111 4.682c.58.439.922 1.106.929 1.814z" fill="#fff"/></mask></g></symbol><symbol id="icon-likes"><path fill-rule="evenodd" clip-rule="evenodd" d="M8 8.093C7.18 9.255 5.908 10 4.48 10 2.006 10 0 7.761 0 5s2.006-5 4.48-5C5.908 0 7.18.745 8 1.907 8.82.745 10.092 0 11.52 0 13.994 0 16 2.239 16 5s-2.006 5-4.48 5c-1.428 0-2.7-.745-3.52-1.907z" fill="#FB5F8A"/><mask id="mask0" maskUnits="userSpaceOnUse" x="0" y="0" width="16" height="10"><path fill-rule="evenodd" clip-rule="evenodd" d="M8 8.093C7.18 9.255 5.908 10 4.48 10 2.006 10 0 7.761 0 5s2.006-5 4.48-5C5.908 0 7.18.745 8 1.907 8.82.745 10.092 0 11.52 0 13.994 0 16 2.239 16 5s-2.006 5-4.48 5c-1.428 0-2.7-.745-3.52-1.907z" fill="#fff"/></mask><path fill-rule="evenodd" clip-rule="evenodd" d="M8 14c2.761 0 8-5 8-9H0c0 4 5.239 9 8 9z" fill="#FB5F8A"/><mask id="mask1" maskUnits="userSpaceOnUse" x="0" y="5" width="16" height="9"><path fill-rule="evenodd" clip-rule="evenodd" d="M8 14c2.761 0 8-5 8-9H0c0 4 5.239 9 8 9z" fill="#fff"/></mask></symbol></svg>